<svg width="56" height="56" viewBox="0 0 56 56" fill="none" xmlns="http://www.w3.org/2000/svg">
<circle cx="28" cy="28" r="28" fill="#006DEA"/>
<path d="M36.5714 29.4286H29.4286V36.5714C29.4286 36.9503 29.2781 37.3137 29.0102 37.5816C28.7422 37.8495 28.3789 38 28 38C27.6211 38 27.2578 37.8495 26.9898 37.5816C26.7219 37.3137 26.5714 36.9503 26.5714 36.5714V29.4286H19.4286C19.0497 29.4286 18.6863 29.2781 18.4184 29.0102C18.1505 28.7422 18 28.3789 18 28C18 27.6211 18.1505 27.2578 18.4184 26.9898C18.6863 26.7219 19.0497 26.5714 19.4286 26.5714H26.5714V19.4286C26.5714 19.0497 26.7219 18.6863 26.9898 18.4184C27.2578 18.1505 27.6211 18 28 18C28.3789 18 28.7422 18.1505 29.0102 18.4184C29.2781 18.6863 29.4286 19.0497 29.4286 19.4286V26.5714H36.5714C36.9503 26.5714 37.3137 26.7219 37.5816 26.9898C37.8495 27.2578 38 27.6211 38 28C38 28.3789 37.8495 28.7422 37.5816 29.0102C37.3137 29.2781 36.9503 29.4286 36.5714 29.4286Z" fill="white"/>
</svg>
